<?xml version="1.0" encoding="UTF-8" ?>
<svg xmlns="http://www.w3.org/2000/svg" width="466.66667" height="466.66667" viewBox="0 0 1400 1400">
<g>
<path d="M 100,760 C 100,660 200,660 200,760 A 245,245 0 1 0 675.22469,676.20506 C 641.02268,582.2358 600,400 600,300 C 600,100 800,100 1000,100 C 1240,100 1300,200 1300,300 C 1300,407.5 1242.87049,515 1014.35245,515 A 490,490 0 1 1 100,760 Z" fill="#3E8578" stroke-width="0"/>
<path d="M 1000,100 C 703.97229,-51.66667 850.64819,79.81506 833.33333,100 C 816.01848,120.18494 680.25518,41.63898 650.73137,49.25802 C 621.20756,56.87707 703.81867,123.39866 685.71429,138.09524 C 667.6099,152.79182 573.19644,110.6197 560.20943,122.74091 C 547.22241,134.86212 628.79852,167.54732 620.77922,198.7013 C 612.75993,229.85527 524.2688,258.25104 520.11295,278.51079 C 515.95711,298.77053 595.81213,270.73234 600,300 C 604.18787,329.26766 538.93123,399.19011 541.05233,424.8491 C 543.17342,450.50809 605.01999,402.99952 610.60547,428.29495 C 616.19095,453.59037 563.96475,526.24589 568.97973,551.32623 C 573.99471,576.40657 627.51899,529.08745 635.68037,553.69663 C 643.84175,578.30582 601.87775,649.87049 609.78661,674.37217 C 617.69548,698.87386 669.45771,658.16491 675.22469,676.20506 C 680.99167,694.24522 635.85291,743.54334 638.62151,764.57296 C 641.39011,785.60258 692.19295,765.88827 689.0677,781.35316 C 685.94245,796.81805 629.37354,821.66804 622.99525,841.8974 C 616.61695,862.12677 666.2833,869.35259 657.17622,882.5 C 648.06915,895.64741 591.78987,891.99602 577.45987,907.63447 C 563.12987,923.27292 599.29086,952.10523 585.52623,960.69225 C 571.76159,969.27927 528.23317,942.45242 508.63668,950.56955 C 489.0402,958.68668 503.82644,998.82188 487.5438,1001.2779 C 471.26117,1003.73392 448.4144,963.77485 427.2235,962.84963 C 406.03261,961.92442 397.75363,1000.938 381.58933,996.65183 C 365.42503,992.36566 365.21646,951.21297 346.402,941.41878 C 327.58754,931.62459 300.84618,958.2182 287.51704,947.68089 C 274.18789,937.14358 292.66879,905.56012 279.7563,888.73224 C 266.84381,871.90436 240.05602,877.59133 222.95459,863.54147 C 205.85316,849.49161 198.84006,839.19123 194.24914,818.48294 C 189.65822,797.77464 38.84983,903.69659 200,760 L 185.59193,817.50939 L 177.6392,884.67239 L 234.20096,921.75179 L 255.37766,985.98311 L 322.31045,995.68443 L 368.64838,1044.94812 L 433.41005,1025.45348 L 496.22621,1050.51829 L 546.68143,1005.48068 L 614.20505,1001.64985 L 640.89929,939.50862 L 700.47749,907.5 L 698.40867,839.89945 L 738.87744,785.71094 L 708.43322,725.31836 L 723.90407,664.78935 L 686.07964,605.06477 L 684.06376,541.08522 L 654.49334,484.72707 L 660.11819,421.33139 L 637.37647,361.4961 L 649.95098,302.21343 L 635.71429,254.54545 L 664.96862,222.09568 L 668.39827,184.63203 L 706.77256,183.44443 L 769.04762,155.95238 L 839.3499,149.63669 L 916.66667,141.66667 L 1000,100" fill="#3E8578" stroke-width="0"/>
<g>
<circle cx="786.66667" cy="309.33333" r="93.33333" fill="white" stroke-width="0"/>
<circle cx="848.05992" cy="286.98802" r="74.66667" fill="#3E8578" stroke-width="0"/>
</g>
<path d="M 1066.66667,402.66667 L 1239.87175,302.66667 C 1251.44829,368.32052 1146.66667,541.23073 1066.66667,402.66667 Z" fill="white" stroke-width="0"/>
<path d="M 672.92111,1143.88892 C 645.96837,1160.59608 662.21797,1202.68726 657.21797,1242.41086 C 652.21797,1282.13447 638.87443,1313.04439 647.92111,1342.50694 C 656.96779,1371.96949 678.63928,1386.72638 702.45139,1389.7236 C 726.2635,1392.72083 747.45382,1383.35894 766.98167,1357.49306 C 786.50952,1331.62718 795.09064,1300.11781 800.09064,1260.39421 C 805.09064,1220.6706 817.41557,1182.1761 791.98167,1158.87504 C 766.54776,1135.57398 699.87385,1127.18175 672.92111,1143.88892 Z" fill="#3E8578" stroke-width="0"/>
<path d="M 818.36341,1121.56031 C 806.10228,1154.26112 847.26962,1191.16004 867.26962,1237.59492 C 887.26962,1284.0298 893.12346,1325.96672 918.36341,1353.73471 C 943.60335,1381.50271 971.42696,1385.92877 993.46934,1376.43488 C 1015.51171,1366.94099 1027.36436,1345.42594 1028.57526,1306.26529 C 1029.78617,1267.10463 1019.52385,1227.06649 999.52385,1180.63161 C 979.52385,1134.19673 964.80735,1085.90515 928.57526,1074.09089 C 892.34318,1062.27663 830.62454,1088.85951 818.36341,1121.56031 Z" fill="#3E8578" stroke-width="0"/>
<path d="M 1040.50475,721.57967 C 1061.40229,737.11328 1083.09454,715.91313 1109.09454,705.91313 C 1135.09454,695.91313 1156.6125,689.77982 1170.50475,671.57967 C 1184.397,653.37953 1185.73538,633.57931 1178.5558,614.91239 C 1171.37622,596.24548 1157.11459,582.44526 1134.60685,578.24511 C 1112.0991,574.04497 1092.01705,583.91166 1066.01705,593.91166 C 1040.01705,603.91166 1009.70931,602.71151 1004.60685,628.24511 C 999.50438,653.77872 1019.60721,706.04607 1040.50475,721.57967 Z" fill="#3E8578" stroke-width="0"/>
<path d="M 1004.40445,609.16912 A 490,490 0 0 1 873.46934,1097.8256 C 854.31822,1113.89529 848.39063,1106.9306 860.96934,1085.3256 A 490,490 0 0 0 854.40445,634.16912 C 811.43224,543.87299 970.20243,515.19985 1004.40445,609.16912" fill="white" stroke-width="0"/>
<path d="M 816.22171,796.75052 C 821.32417,822.28412 851.63192,821.08397 877.63192,831.08397 C 903.63192,841.08397 923.71397,850.95067 946.22171,846.75052 C 968.72946,842.55037 982.99109,828.75015 990.17067,810.08324 C 997.35025,791.41633 996.01187,771.6161 982.11962,753.41596 C 968.22737,735.21581 946.70941,729.0825 920.70941,719.0825 C 894.70941,709.0825 873.01716,687.88235 852.11962,703.41596 C 831.22208,718.94956 811.11925,771.21691 816.22171,796.75052 Z" fill="#3E8578" stroke-width="0"/>
</g>
</svg>
