<?xml version="1.0" encoding="UTF-8" standalone="no"?>
<svg
   xmlns:dc="http://purl.org/dc/elements/1.1/"
   xmlns:cc="http://creativecommons.org/ns#"
   xmlns:rdf="http://www.w3.org/1999/02/22-rdf-syntax-ns#"
   xmlns:svg="http://www.w3.org/2000/svg"
   xmlns="http://www.w3.org/2000/svg"
   id="svg30"
   version="1.1"
   viewBox="0 0 7700 1500"
   height="125"
   width="641.66667">
  <metadata
     id="metadata36">
    <rdf:RDF>
      <cc:Work
         rdf:about="">
        <dc:format>image/svg+xml</dc:format>
        <dc:type
           rdf:resource="http://purl.org/dc/dcmitype/StillImage" />
      </cc:Work>
    </rdf:RDF>
  </metadata>
  <defs
     id="defs34" />
  <g
     id="g24">
    <path
       id="path2"
       stroke-width="0"
       fill="#3E8578"
       d="m 100,760 c 0,-100 100,-100 100,0 A 245,245 0 1 0 675.22469,676.20506 C 641.02268,582.2358 600,400 600,300 c 0,-200 200,-200 400,-200 240,0 300,100 300,200 0,107.5 -57.1295,215 -285.6476,215 A 490,490 0 1 1 100,760 Z" />
    <path
       id="path4"
       stroke-width="0"
       fill="#3E8578"
       d="M 1000,100 C 703.97229,-51.66667 850.64819,79.81506 833.33333,100 816.01848,120.18494 680.25518,41.63898 650.73137,49.25802 c -29.52381,7.61905 53.0873,74.14064 34.98292,88.83722 -18.10439,14.69658 -112.51785,-27.47554 -125.50486,-15.35433 -12.98702,12.12121 68.58909,44.80641 60.56979,75.96039 -8.01929,31.15397 -96.51042,59.54974 -100.66627,79.80949 C 515.95711,298.77053 595.81213,270.73234 600,300 c 4.18787,29.26766 -61.06877,99.19011 -58.94767,124.8491 2.12109,25.65899 63.96766,-21.84958 69.55314,3.44585 5.58548,25.29542 -46.64072,97.95094 -41.62574,123.03128 5.01498,25.08034 58.53926,-22.23878 66.70064,2.3704 8.16138,24.60919 -33.80262,96.17386 -25.89376,120.67554 7.90887,24.50169 59.6711,-16.20726 65.43808,1.83289 5.76698,18.04016 -39.37178,67.33828 -36.60318,88.3679 2.7686,21.02962 53.57144,1.31531 50.44619,16.7802 -3.12525,15.46489 -59.69416,40.31488 -66.07245,60.54424 -6.3783,20.22937 43.28805,27.45519 34.18097,40.6026 -9.10707,13.14741 -65.38635,9.49602 -79.71635,25.13447 -14.33,15.63845 21.83099,44.47076 8.06636,53.05778 -13.76464,8.58702 -57.29306,-18.23983 -76.88955,-10.1227 -19.59648,8.11713 -4.81024,48.25233 -21.09288,50.70835 -16.28263,2.456 -39.1294,-37.50305 -60.3203,-38.42827 -21.19089,-0.92521 -29.46987,38.08837 -45.63417,33.8022 -16.1643,-4.28617 -16.37287,-45.43886 -35.18733,-55.23305 -18.81446,-9.79419 -45.55582,16.79942 -58.88496,6.26211 -13.32915,-10.53731 5.15175,-42.12077 -7.76074,-58.94865 C 266.84381,871.90436 240.05602,877.59133 222.95459,863.54147 205.85316,849.49161 198.84006,839.19123 194.24914,818.48294 189.65822,797.77464 38.84983,903.69659 200,760 l -14.40807,57.50939 -7.95273,67.163 56.56176,37.0794 21.1767,64.23132 66.93279,9.70132 46.33793,49.26367 64.76167,-19.4946 62.81616,25.0648 50.45522,-45.0376 67.52362,-3.8308 26.69424,-62.14128 59.5782,-32.00862 -2.06882,-67.60055 40.46877,-54.18851 -30.44422,-60.39258 15.47085,-60.52901 -37.82443,-59.72458 -2.01588,-63.97955 -29.57042,-56.35815 5.62485,-63.39568 -22.74172,-59.83529 12.57451,-59.28267 -14.23669,-47.66798 29.25433,-32.44977 3.42965,-37.46365 38.37429,-1.1876 62.27506,-27.49205 70.30228,-6.31569 77.31677,-7.97002 L 1000,100" />
    <g
       id="g10">
      <path
         d="m 880.00002,309.33334 a 93.333328,93.333328 0 0 1 -93.33333,93.33333 93.333328,93.333328 0 0 1 -93.33333,-93.33333 93.333328,93.333328 0 0 1 93.33333,-93.33332 93.333328,93.333328 0 0 1 93.33333,93.33332"
         style="fill:#ffffff;stroke-width:0"
         id="circle6" />
      <path
         d="m 922.72661,286.98801 a 74.666672,74.666672 0 0 1 -74.66667,74.66667 74.666672,74.666672 0 0 1 -74.66668,-74.66667 74.666672,74.666672 0 0 1 74.66668,-74.66668 74.666672,74.666672 0 0 1 74.66667,74.66668"
         style="fill:#3e8578;stroke-width:0"
         id="circle8" />
    </g>
    <path
       id="path12"
       stroke-width="0"
       fill="white"
       d="m 1066.6667,402.66667 173.2051,-100 c 11.5765,65.65385 -93.2051,238.56406 -173.2051,100 z" />
    <path
       id="path14"
       stroke-width="0"
       fill="#3E8578"
       d="m 672.92111,1143.8889 c -26.95274,16.7072 -10.70314,58.7984 -15.70314,98.522 -5,39.7236 -18.34354,70.6335 -9.29686,100.096 9.04668,29.4626 30.71817,44.2195 54.53028,47.2167 23.81211,2.9972 45.00243,-6.3647 64.53028,-32.2305 19.52785,-25.8659 28.10897,-57.3753 33.10897,-97.0989 5,-39.7236 17.32493,-78.2181 -8.10897,-101.5192 -25.43391,-23.301 -92.10782,-31.6932 -119.06056,-14.9861 z" />
    <path
       id="path16"
       stroke-width="0"
       fill="#3E8578"
       d="m 818.07877,1120.8882 c -12.31664,33.2021 29.19791,71.8501 49.19791,119.885 20,48.0349 25.56356,91.2371 50.80209,120.2894 25.23853,29.0524 53.23434,34.1973 75.39057,24.9723 22.15626,-9.2251 34.04166,-30.9751 35.39056,-71.0975 1.3489,-40.1224 -8.6459,-81.4796 -28.6459,-129.5145 -19.99996,-48.0349 -34.92705,-97.753 -71.3541,-110.6599 -36.42705,-12.907 -98.46448,12.9232 -110.78113,46.1252 z" />
    <path
       id="path18"
       stroke-width="0"
       fill="#3E8578"
       d="m 1040.5048,721.57967 c 20.8975,15.53361 42.5897,-5.66654 68.5897,-15.66654 26,-10 47.518,-16.13331 61.4103,-34.33346 13.8922,-18.20014 15.2306,-38.00036 8.051,-56.66728 -7.1796,-18.66691 -21.4412,-32.46713 -43.949,-36.66728 -22.5077,-4.20014 -42.5897,5.66655 -68.5897,15.66655 -26,10 -56.3078,8.79985 -61.4103,34.33345 -5.10242,25.53361 15.0004,77.80096 35.898,93.33456 z" />
    <path
       id="path20"
       stroke-width="0"
       fill="white"
       d="M 1004.4044,609.16912 A 490,490 0 0 1 873.46934,1097.8256 c -19.15112,16.0697 -25.07871,9.105 -12.5,-12.5 a 490,490 0 0 0 -6.56489,-451.15648 c -42.97221,-90.29613 115.79798,-118.96927 149.99995,-25" />
    <path
       id="path22"
       stroke-width="0"
       fill="#3E8578"
       d="m 816.22171,796.75052 c 5.10246,25.5336 35.41021,24.33345 61.41021,34.33345 26,10 46.08205,19.8667 68.58979,15.66655 22.50775,-4.20015 36.76938,-18.00037 43.94896,-36.66728 7.17958,-18.66691 5.8412,-38.46714 -8.05105,-56.66728 -13.89225,-18.20015 -35.41021,-24.33346 -61.41021,-34.33346 -26,-10 -47.69225,-31.20015 -68.58979,-15.66654 -20.89754,15.5336 -41.00037,67.80095 -35.89791,93.33456 z" />
  </g>
  <g
     style="font-size:1240px;font-family:'Arial Rounded MT Bold';letter-spacing:20px;fill:#3e8578"
     id="text26"
     aria-label="Perfolizer">
    <path
       id="path40"
       style="font-size:1240px;font-family:'Arial Rounded MT Bold';letter-spacing:20px;fill:#3e8578"
       d="m 1841.3867,585.27734 h -164.6875 v 251.26953 q 0,53.88672 -25.4297,81.73829 -25.4297,27.85156 -64.1797,27.85156 -40.5664,0 -65.3906,-27.2461 -24.8242,-27.85156 -24.8242,-81.13281 V 153.57812 q 0,-59.335933 27.2461,-84.76562 27.2461,-25.429688 86.582,-25.429688 h 230.6836 q 102.3242,0 157.4219,15.742188 54.4922,15.136719 93.8477,50.25391 39.9609,35.11718 60.5468,85.97656 20.586,50.85937 20.586,114.43359 0,135.625 -83.5547,205.85938 -83.5547,69.6289 -248.8477,69.6289 z m -43.5937,-406.875 h -121.0938 v 271.25 h 121.0938 q 63.5742,0 105.957,-13.32031 42.9883,-13.32031 65.3906,-43.59375 22.4024,-30.27344 22.4024,-79.31641 0,-58.73046 -34.5117,-95.66406 -38.75,-39.35547 -159.2383,-39.35547 z" />
    <path
       id="path42"
       style="font-size:1240px;font-family:'Arial Rounded MT Bold';letter-spacing:20px;fill:#3e8578"
       d="m 2747.1875,650.66797 h -323.3203 q 0.6055,56.30859 22.4023,99.29687 22.4024,42.98828 58.7305,64.78516 36.9336,21.79687 81.1328,21.79687 29.668,0 53.8867,-6.66015 24.8243,-7.26563 47.8321,-21.79688 23.0078,-15.13672 42.3828,-32.08984 19.375,-16.95313 50.2539,-46.01563 12.7148,-10.89843 36.3281,-10.89843 25.4297,0 41.1719,13.92578 15.7422,13.92578 15.7422,39.35547 0,22.40234 -17.5586,52.67578 -17.5586,29.66797 -53.2813,57.51953 -35.1172,27.24609 -89.0039,45.41016 -53.2812,18.16406 -122.9101,18.16406 -159.2383,0 -247.6368,-90.82031 -88.3984,-90.82032 -88.3984,-246.42579 0,-73.26171 21.7969,-135.625 21.7969,-62.96875 63.5742,-107.77343 41.7773,-44.80469 102.9297,-68.41797 61.1523,-24.21875 135.625,-24.21875 96.875,0 165.8984,41.17187 69.6289,40.56641 104.1407,105.35157 34.5117,64.78515 34.5117,131.99218 0,62.36328 -35.7227,81.13282 -35.7226,18.16406 -100.5078,18.16406 z m -323.3203,-93.84766 h 299.707 q -6.0547,-84.76562 -46.0156,-126.54297 -39.3555,-42.38281 -104.1406,-42.38281 -61.7578,0 -101.7188,42.98828 -39.3554,42.38281 -47.832,125.9375 z" />
    <path
       id="path44"
       style="font-size:1240px;font-family:'Arial Rounded MT Bold';letter-spacing:20px;fill:#3e8578"
       d="m 3205.5469,707.58203 v 138.04688 q 0,50.2539 -23.6133,75.68359 -23.6133,24.82422 -59.9414,24.82422 -35.7227,0 -58.7305,-25.42969 -23.0078,-25.42969 -23.0078,-75.07812 V 385.47266 q 0,-111.40625 80.5274,-111.40625 41.1718,0 59.3359,26.03515 18.1641,26.03516 19.9805,76.89453 29.6679,-50.85937 60.5468,-76.89453 31.4844,-26.03515 83.5547,-26.03515 52.0703,0 101.1133,26.03515 49.043,26.03516 49.043,69.02344 0,30.27344 -21.1914,50.25391 -20.586,19.375 -44.8047,19.375 -9.0821,0 -44.1992,-10.89844 -34.5118,-11.50391 -61.1524,-11.50391 -36.3281,0 -59.3359,19.375 -23.0078,18.76953 -35.7227,56.3086 -12.7148,37.53906 -17.5586,89.60937 -4.8437,51.46484 -4.8437,125.9375 z" />
    <path
       id="path46"
       style="font-size:1240px;font-family:'Arial Rounded MT Bold';letter-spacing:20px;fill:#3e8578"
       d="M 3590.6445,288.59766 H 3630 v -49.64844 q 0,-77.5 19.375,-122.91016 19.9805,-46.015623 66.6016,-66.60156 47.2265,-21.191406 128.9648,-21.191406 144.707,0 144.707,70.839843 0,23.007813 -15.1367,39.355473 -15.1367,16.34765 -35.7226,16.34765 -9.6875,0 -33.3008,-3.63281 -23.6133,-3.63281 -39.961,-3.63281 -44.8046,0 -57.5195,26.64062 -12.7148,26.03516 -12.7148,75.07813 v 39.35547 h 40.5664 q 94.4531,0 94.4531,56.91406 0,40.5664 -25.4297,51.46484 -24.8242,10.89844 -69.0234,10.89844 h -40.5664 v 437.75391 q 0,49.04296 -23.6133,75.07812 -23.0078,25.42969 -59.9414,25.42969 -35.1172,0 -58.7305,-25.42969 Q 3630,894.67187 3630,845.62891 V 407.875 h -45.4102 q -36.9335,0 -56.914,-16.34766 -19.9805,-16.95312 -19.9805,-43.59375 0,-59.33593 82.9492,-59.33593 z" />
    <path
       id="path48"
       style="font-size:1240px;font-family:'Arial Rounded MT Bold';letter-spacing:20px;fill:#3e8578"
       d="m 4641.4551,610.10156 q 0,73.86719 -23.0078,136.23047 -23.0078,62.36328 -66.6016,107.16797 -43.5937,44.80469 -104.1406,69.02344 -60.5469,23.61328 -136.2305,23.61328 -75.0781,0 -135.0195,-24.21875 -59.9414,-24.21875 -104.1406,-69.02344 -43.5938,-45.41016 -66.6016,-106.5625 -22.4024,-61.75781 -22.4024,-136.23047 0,-75.07812 23.0079,-137.4414 23.0078,-62.36329 65.9961,-106.5625 42.9882,-44.19922 104.1406,-67.8125 61.1523,-24.21875 135.0195,-24.21875 75.0781,0 136.2305,24.21875 61.1523,24.21875 104.7461,69.02343 43.5937,44.80469 65.9961,106.5625 23.0078,61.75782 23.0078,136.23047 z m -165.8985,0 q 0,-101.11328 -44.8046,-157.42187 -44.1993,-56.3086 -119.2774,-56.3086 -48.4375,0 -85.3711,25.42969 -36.9336,24.82422 -56.914,73.86719 -19.9805,49.04297 -19.9805,114.43359 0,64.78516 19.375,113.22266 19.9805,48.4375 56.3086,74.47265 36.9336,25.42969 86.582,25.42969 75.0781,0 119.2774,-56.30859 44.8046,-56.91406 44.8046,-156.81641 z" />
    <path
       id="path50"
       style="font-size:1240px;font-family:'Arial Rounded MT Bold';letter-spacing:20px;fill:#3e8578"
       d="m 4791.9336,845.62891 v -716.875 q 0,-49.648441 21.7969,-75.078129 22.4023,-25.429687 59.9414,-25.429687 37.539,0 60.5468,25.429687 23.0079,24.824219 23.0079,75.078129 v 716.875 q 0,50.2539 -23.6133,75.68359 -23.0078,24.82422 -59.9414,24.82422 -36.3282,0 -59.336,-26.03516 -22.4023,-26.03515 -22.4023,-74.47265 z" />
    <path
       id="path52"
       style="font-size:1240px;font-family:'Arial Rounded MT Bold';letter-spacing:20px;fill:#3e8578"
       d="m 5313.8672,367.91406 v 477.71485 q 0,49.64843 -23.6133,75.07812 -23.6133,25.42969 -59.9414,25.42969 -36.3281,0 -59.3359,-26.03516 -22.4024,-26.03515 -22.4024,-74.47265 v -472.8711 q 0,-49.04297 22.4024,-73.86719 23.0078,-24.82421 59.3359,-24.82421 36.3281,0 59.9414,24.82421 23.6133,24.82422 23.6133,69.02344 z m -81.7383,-170.74219 q -34.5117,0 -59.3359,-21.1914 -24.2188,-21.19141 -24.2188,-59.94141 0,-35.117185 24.8242,-57.519529 25.4297,-23.007812 58.7305,-23.007812 32.0898,0 56.9141,20.585937 24.8242,20.585938 24.8242,59.941404 0,38.14453 -24.2188,59.94141 -24.2187,21.1914 -57.5195,21.1914 z" />
    <path
       id="path54"
       style="font-size:1240px;font-family:'Arial Rounded MT Bold';letter-spacing:20px;fill:#3e8578"
       d="m 5954.4727,463.57812 -302.7344,338.45704 h 323.9258 q 39.3554,0 59.3359,18.76953 19.9805,18.16406 19.9805,47.22656 0,27.85156 -19.9805,45.41016 Q 6015.625,931 5975.6641,931 h -448.0469 q -47.2266,0 -70.8399,-20.58594 -23.0078,-20.58594 -23.0078,-56.30859 0,-21.19141 16.3477,-42.38281 16.3476,-21.79688 67.8125,-79.31641 54.4922,-60.54688 98.6914,-109.58984 44.8047,-49.04297 82.9492,-91.42579 38.1445,-42.98828 62.9688,-72.65625 25.4296,-29.66796 40.5664,-50.85937 h -245.8203 q -50.8594,0 -76.8946,-9.08203 -26.0351,-9.08203 -26.0351,-47.83203 0,-28.45703 19.375,-45.41016 19.9804,-16.95312 56.3086,-16.95312 h 379.6289 q 52.6757,0 80.5273,15.74218 28.457,15.13672 28.457,55.09766 0,13.32031 -5.4492,27.85156 -5.4492,13.92578 -12.1094,23.00781 -6.6601,9.08204 -18.164,22.40235 -11.5039,12.71484 -28.457,30.8789 z" />
    <path
       id="path56"
       style="font-size:1240px;font-family:'Arial Rounded MT Bold';letter-spacing:20px;fill:#3e8578"
       d="m 6617.7832,650.66797 h -323.3203 q 0.6055,56.30859 22.4023,99.29687 22.4024,42.98828 58.7305,64.78516 36.9336,21.79687 81.1328,21.79687 29.668,0 53.8867,-6.66015 24.8243,-7.26563 47.8321,-21.79688 23.0078,-15.13672 42.3828,-32.08984 19.375,-16.95313 50.2539,-46.01563 12.7148,-10.89843 36.3281,-10.89843 25.4297,0 41.1719,13.92578 15.7422,13.92578 15.7422,39.35547 0,22.40234 -17.5586,52.67578 -17.5586,29.66797 -53.2813,57.51953 -35.1172,27.24609 -89.0039,45.41016 -53.2812,18.16406 -122.9101,18.16406 -159.2383,0 -247.6368,-90.82031 -88.3984,-90.82032 -88.3984,-246.42579 0,-73.26171 21.7969,-135.625 21.7969,-62.96875 63.5742,-107.77343 41.7773,-44.80469 102.9297,-68.41797 61.1523,-24.21875 135.625,-24.21875 96.875,0 165.8984,41.17187 69.6289,40.56641 104.1407,105.35157 34.5117,64.78515 34.5117,131.99218 0,62.36328 -35.7227,81.13282 -35.7226,18.16406 -100.5078,18.16406 z m -323.3203,-93.84766 h 299.707 q -6.0547,-84.76562 -46.0156,-126.54297 -39.3555,-42.38281 -104.1406,-42.38281 -61.7578,0 -101.7188,42.98828 -39.3554,42.38281 -47.832,125.9375 z" />
    <path
       id="path58"
       style="font-size:1240px;font-family:'Arial Rounded MT Bold';letter-spacing:20px;fill:#3e8578"
       d="m 7077.6562,707.58203 v 138.04688 q 0,50.2539 -23.6132,75.68359 -23.6133,24.82422 -59.9414,24.82422 -35.7227,0 -58.7305,-25.42969 -23.0078,-25.42969 -23.0078,-75.07812 V 385.47266 q 0,-111.40625 80.5273,-111.40625 41.1719,0 59.336,26.03515 18.164,26.03516 19.9804,76.89453 29.668,-50.85937 60.5469,-76.89453 31.4844,-26.03515 83.5547,-26.03515 52.0703,0 101.1133,26.03515 49.0429,26.03516 49.0429,69.02344 0,30.27344 -21.1914,50.25391 -20.5859,19.375 -44.8047,19.375 -9.082,0 -44.1992,-10.89844 -34.5117,-11.50391 -61.1523,-11.50391 -36.3281,0 -59.336,19.375 -23.0078,18.76953 -35.7226,56.3086 -12.7149,37.53906 -17.5586,89.60937 -4.8438,51.46484 -4.8438,125.9375 z" />
  </g>
  <g
     style="font-size:388.5px;font-family:'Arial Rounded MT Bold';letter-spacing:20px;fill:#3e8578"
     id="text28"
     aria-label="Performance analysis toolkit">
    <path
       id="path61"
       style="font-size:388.5px;font-family:'Arial Rounded MT Bold';letter-spacing:20px;fill:#3e8578"
       d="m 1603.2893,1276.6829 h -51.5976 v 78.7243 q 0,16.8831 -7.9673,25.6092 -7.9673,8.726 -20.1079,8.726 -12.7098,0 -20.4873,-8.5363 -7.7776,-8.7261 -7.7776,-25.4195 v -214.3579 q 0,-18.5903 8.5363,-26.5576 8.5364,-7.9673 27.1267,-7.9673 h 72.2747 q 32.0588,0 49.3213,4.9321 17.0727,4.7425 29.4031,15.7449 12.52,11.0025 18.9697,26.937 6.4497,15.9346 6.4497,35.8528 0,42.4922 -26.1782,64.4971 -26.1782,21.8152 -77.9656,21.8152 z m -13.6582,-127.4766 h -37.9394 v 84.9844 h 37.9394 q 19.9182,0 33.197,-4.1734 13.4685,-4.1733 20.4873,-13.6582 7.0188,-9.4848 7.0188,-24.8503 0,-18.4006 -10.8127,-29.9722 -12.1406,-12.3303 -49.8904,-12.3303 z" />
    <path
       id="path63"
       style="font-size:388.5px;font-family:'Arial Rounded MT Bold';letter-spacing:20px;fill:#3e8578"
       d="m 1900.8164,1297.1702 h -101.2983 q 0.1897,17.6418 7.0188,31.1103 7.0188,13.4685 18.4006,20.2976 11.5715,6.8291 25.4194,6.8291 9.2952,0 16.8831,-2.0866 7.7776,-2.2764 14.9861,-6.8291 7.2085,-4.7425 13.2788,-10.054 6.0703,-5.3115 15.7449,-14.417 3.9836,-3.4145 11.3818,-3.4145 7.9673,0 12.8994,4.363 4.9321,4.363 4.9321,12.3303 0,7.0188 -5.5012,16.5037 -5.5012,9.2951 -16.6933,18.0212 -11.0025,8.5364 -27.8855,14.2273 -16.6934,5.6909 -38.5086,5.6909 -49.8904,0 -77.5862,-28.4546 -27.6958,-28.4545 -27.6958,-77.2067 0,-22.9534 6.8291,-42.4922 6.8291,-19.7285 19.9182,-33.7661 13.0892,-14.0376 32.2486,-21.4358 19.1594,-7.5879 42.4922,-7.5879 30.3515,0 51.977,12.8994 21.8152,12.7097 32.6279,33.0073 10.8128,20.2976 10.8128,41.354 0,19.5388 -11.1921,25.4194 -11.1922,5.691 -31.4898,5.691 z m -101.2983,-29.4031 h 93.9001 q -1.897,-26.5576 -14.417,-39.6467 -12.3303,-13.2788 -32.6279,-13.2788 -19.3491,0 -31.8691,13.4685 -12.3304,13.2788 -14.9861,39.457 z" />
    <path
       id="path65"
       style="font-size:388.5px;font-family:'Arial Rounded MT Bold';letter-spacing:20px;fill:#3e8578"
       d="m 2058.1572,1315.0017 v 43.251 q 0,15.7449 -7.3982,23.7121 -7.3982,7.7776 -18.78,7.7776 -11.1921,0 -18.4006,-7.9673 -7.2085,-7.9672 -7.2085,-23.5224 v -144.1699 q 0,-34.9043 25.2297,-34.9043 12.8994,0 18.5903,8.1569 5.691,8.157 6.2601,24.0916 9.2951,-15.9346 18.9697,-24.0916 9.8642,-8.1569 26.1782,-8.1569 16.314,0 31.6794,8.1569 15.3655,8.157 15.3655,21.6255 0,9.4849 -6.6394,15.7449 -6.4497,6.0703 -14.0376,6.0703 -2.8454,0 -13.8479,-3.4145 -10.8127,-3.6043 -19.1594,-3.6043 -11.3818,0 -18.5903,6.0703 -7.2085,5.8807 -11.1922,17.6419 -3.9836,11.7612 -5.5012,28.0752 -1.5176,16.1242 -1.5176,39.457 z" />
    <path
       id="path67"
       style="font-size:388.5px;font-family:'Arial Rounded MT Bold';letter-spacing:20px;fill:#3e8578"
       d="m 2192.5447,1183.7312 h 12.3303 v -15.5552 q 0,-24.2812 6.0703,-38.5085 6.26,-14.417 20.8667,-20.8667 14.7964,-6.6394 40.4055,-6.6394 45.3377,0 45.3377,22.1946 0,7.2085 -4.7425,12.3303 -4.7424,5.1218 -11.1921,5.1218 -3.0352,0 -10.4333,-1.1382 -7.3982,-1.1382 -12.5201,-1.1382 -14.0376,0 -18.0212,8.3467 -3.9836,8.157 -3.9836,23.5225 v 12.3303 h 12.7097 q 29.5927,0 29.5927,17.8315 0,12.7098 -7.9672,16.1243 -7.7776,3.4146 -21.6255,3.4146 h -12.7097 v 137.1511 q 0,15.3655 -7.3982,23.5224 -7.2085,7.9673 -18.7801,7.9673 -11.0024,0 -18.4006,-7.9673 -7.2085,-8.1569 -7.2085,-23.5224 v -137.1511 h -14.2273 q -11.5715,0 -17.8315,-5.1219 -6.26,-5.3115 -6.26,-13.6582 0,-18.5903 25.9885,-18.5903 z" />
    <path
       id="path69"
       style="font-size:388.5px;font-family:'Arial Rounded MT Bold';letter-spacing:20px;fill:#3e8578"
       d="m 2535.5043,1284.4604 q 0,23.1431 -7.2085,42.6819 -7.2085,19.5389 -20.8667,33.5765 -13.6582,14.0375 -32.628,21.6254 -18.9697,7.3982 -42.6818,7.3982 -23.5225,0 -42.3025,-7.5879 -18.7801,-7.5878 -32.628,-21.6254 -13.6582,-14.2273 -20.8667,-33.3868 -7.0188,-19.3491 -7.0188,-42.6819 0,-23.5224 7.2085,-43.0612 7.2085,-19.5388 20.677,-33.3867 13.4685,-13.8479 32.628,-21.2461 19.1594,-7.5879 42.3025,-7.5879 23.5224,0 42.6818,7.5879 19.1595,7.5878 32.8177,21.6254 13.6582,14.0376 20.677,33.3868 7.2085,19.3491 7.2085,42.6818 z m -51.9771,0 q 0,-31.6794 -14.0376,-49.3212 -13.8479,-17.6419 -37.3703,-17.6419 -15.1758,0 -26.7474,7.9673 -11.5715,7.7776 -17.8315,23.1431 -6.26,15.3654 -6.26,35.8527 0,20.2977 6.0703,35.4734 6.26,15.1758 17.6419,23.3328 11.5715,7.9673 27.1267,7.9673 23.5224,0 37.3703,-17.6419 14.0376,-17.8315 14.0376,-49.1316 z" />
    <path
       id="path71"
       style="font-size:388.5px;font-family:'Arial Rounded MT Bold';letter-spacing:20px;fill:#3e8578"
       d="m 2647.792,1315.0017 v 43.251 q 0,15.7449 -7.3982,23.7121 -7.3982,7.7776 -18.78,7.7776 -11.1922,0 -18.4007,-7.9673 -7.2085,-7.9672 -7.2085,-23.5224 v -144.1699 q 0,-34.9043 25.2298,-34.9043 12.8994,0 18.5903,8.1569 5.6909,8.157 6.26,24.0916 9.2952,-15.9346 18.9697,-24.0916 9.8643,-8.1569 26.1783,-8.1569 16.3139,0 31.6794,8.1569 15.3655,8.157 15.3655,21.6255 0,9.4849 -6.6394,15.7449 -6.4497,6.0703 -14.0376,6.0703 -2.8455,0 -13.8479,-3.4145 -10.8128,-3.6043 -19.1594,-3.6043 -11.3819,0 -18.5904,6.0703 -7.2085,5.8807 -11.1921,17.6419 -3.9837,11.7612 -5.5012,28.0752 -1.5176,16.1242 -1.5176,39.457 z" />
    <path
       id="path73"
       style="font-size:388.5px;font-family:'Arial Rounded MT Bold';letter-spacing:20px;fill:#3e8578"
       d="m 2958.5979,1288.2544 v 68.8601 q 0,16.314 -7.3982,24.4709 -7.3982,8.157 -19.5388,8.157 -11.7612,0 -19.1594,-8.157 -7.2085,-8.1569 -7.2085,-24.4709 v -82.5183 q 0,-19.5388 -1.3279,-30.3516 -1.3279,-10.8127 -7.2085,-17.6418 -5.8806,-7.0188 -18.5903,-7.0188 -25.4195,0 -33.5765,17.4521 -7.9672,17.4522 -7.9672,50.0801 v 69.9983 q 0,16.1243 -7.3982,24.4709 -7.2085,8.157 -19.1595,8.157 -11.7612,0 -19.3491,-8.157 -7.3982,-8.3466 -7.3982,-24.4709 v -148.1536 q 0,-14.6067 6.6394,-22.1945 6.8291,-7.5879 17.8316,-7.5879 10.623,0 17.6418,7.2085 7.2085,7.0188 7.2085,19.5388 v 4.9321 q 13.4685,-16.1243 28.834,-23.7121 15.3655,-7.5879 34.1455,-7.5879 19.5388,0 33.5764,7.7775 14.0376,7.7776 23.1431,23.5225 13.0891,-15.9346 28.0752,-23.5225 14.9861,-7.7775 33.197,-7.7775 21.2461,0 36.6116,8.3466 15.3655,8.3467 22.9533,23.9019 6.6395,14.0376 6.6395,44.1995 v 101.1086 q 0,16.314 -7.3982,24.4709 -7.3982,8.157 -19.5389,8.157 -11.7612,0 -19.3491,-8.157 -7.3982,-8.3466 -7.3982,-24.4709 v -87.071 q 0,-16.6934 -1.5176,-26.7474 -1.3278,-10.0539 -7.5878,-16.883 -6.2601,-6.8291 -18.9698,-6.8291 -10.2436,0 -19.5388,6.0703 -9.1055,6.0703 -14.2273,16.314 -5.6909,13.0891 -5.6909,46.2861 z" />
    <path
       id="path75"
       style="font-size:388.5px;font-family:'Arial Rounded MT Bold';letter-spacing:20px;fill:#3e8578"
       d="m 3280.9753,1360.5291 q -18.78,14.6066 -36.4218,22.0048 -17.4522,7.2085 -39.2674,7.2085 -19.9182,0 -35.094,-7.7776 -14.986,-7.9672 -23.143,-21.4357 -8.157,-13.4686 -8.157,-29.2134 0,-21.2461 13.4685,-36.2322 13.4685,-14.9861 36.991,-20.1079 4.9321,-1.1382 24.4709,-5.1218 19.5388,-3.9837 33.3867,-7.2085 14.0376,-3.4146 30.3516,-8.157 -0.9485,-20.4873 -8.3467,-29.9722 -7.2085,-9.6745 -30.1619,-9.6745 -19.7285,0 -29.7824,5.5012 -9.8643,5.5012 -17.0728,16.5036 -7.0188,11.0025 -10.0539,14.6067 -2.8455,3.4146 -12.5201,3.4146 -8.726,0 -15.1757,-5.5012 -6.26,-5.691 -6.26,-14.417 0,-13.6582 9.6745,-26.5577 9.6746,-12.8994 30.1619,-21.246 20.4873,-8.3467 51.0285,-8.3467 34.1456,0 53.6844,8.157 19.5388,7.9672 27.5061,25.4194 8.157,17.4521 8.157,46.2861 0,18.211 -0.1897,30.9207 0,12.7097 -0.1897,28.2649 0,14.6067 4.7424,30.5412 4.9321,15.7449 4.9321,20.2976 0,7.9673 -7.5879,14.6067 -7.3982,6.4497 -16.883,6.4497 -7.9673,0 -15.7449,-7.3982 -7.7776,-7.5879 -16.5037,-21.8151 z m -3.4145,-74.9305 q -11.3818,4.1734 -33.197,8.9158 -21.6255,4.5527 -29.9722,6.8291 -8.3467,2.0867 -15.9346,8.5364 -7.5879,6.26 -7.5879,17.6418 0,11.7613 8.9158,20.1079 8.9158,8.157 23.3328,8.157 15.3655,0 28.2649,-6.6394 13.0891,-6.8291 19.1594,-17.4521 7.0188,-11.7613 7.0188,-38.6983 z" />
    <path
       id="path77"
       style="font-size:388.5px;font-family:'Arial Rounded MT Bold';letter-spacing:20px;fill:#3e8578"
       d="m 3447.801,1207.8228 v 6.26 q 13.6582,-18.0213 29.7825,-26.368 16.314,-8.5363 37.3704,-8.5363 20.4873,0 36.6115,8.9157 16.1243,8.9158 24.0916,25.2298 5.1218,9.4848 6.6394,20.4873 1.5176,11.0024 1.5176,28.0752 v 96.3662 q 0,15.5552 -7.2085,23.5224 -7.0188,7.9673 -18.4007,7.9673 -11.5715,0 -18.78,-8.157 -7.2085,-8.1569 -7.2085,-23.3327 v -86.3123 q 0,-25.6091 -7.2085,-39.0776 -7.0188,-13.6582 -28.2649,-13.6582 -13.8479,0 -25.2297,8.3467 -11.3819,8.157 -16.6934,22.5739 -3.7939,11.5716 -3.7939,43.251 v 64.8765 q 0,15.7449 -7.3982,23.7121 -7.2085,7.7776 -18.78,7.7776 -11.1922,0 -18.4007,-8.157 -7.2085,-8.1569 -7.2085,-23.3327 v -149.6712 q 0,-14.7963 6.4497,-22.0048 6.4497,-7.3982 17.6419,-7.3982 6.8291,0 12.3303,3.2248 5.5012,3.2249 8.7261,9.6746 3.4145,6.4497 3.4145,15.7449 z" />
    <path
       id="path79"
       style="font-size:388.5px;font-family:'Arial Rounded MT Bold';letter-spacing:20px;fill:#3e8578"
       d="m 3840.9355,1325.6248 q 0,9.6745 -5.8806,20.677 -5.6909,11.0024 -17.6418,21.0564 -11.7612,9.8642 -29.7825,15.9345 -18.0212,6.0703 -40.5952,6.0703 -47.9934,0 -74.9304,-27.8855 -26.937,-28.0752 -26.937,-75.1201 0,-31.8691 12.3303,-56.3401 12.3303,-24.4709 35.6631,-37.7497 23.3327,-13.4685 55.771,-13.4685 20.1079,0 36.8012,5.8806 16.8831,5.8806 28.4546,15.1758 11.7613,9.2951 17.8316,19.9182 6.26,10.4333 6.26,19.5388 0,9.2952 -7.0188,15.7449 -6.8291,6.4497 -16.6934,6.4497 -6.4497,0 -10.8127,-3.2249 -4.1734,-3.4145 -9.4849,-10.8127 -9.4848,-14.417 -19.9182,-21.6255 -10.2436,-7.2085 -26.1782,-7.2085 -22.9534,0 -36.991,18.0212 -14.0376,17.8316 -14.0376,48.9419 0,14.6067 3.6043,26.937 3.6042,12.1407 10.4333,20.8667 6.8291,8.5364 16.5037,13.0892 9.6745,4.363 21.2461,4.363 15.5551,0 26.5576,-7.2085 11.1921,-7.2085 19.7285,-22.0049 4.7424,-8.7261 10.2437,-13.6582 5.5012,-4.9321 13.4685,-4.9321 9.4848,0 15.7448,7.2085 6.26,7.2085 6.26,15.3655 z" />
    <path
       id="path81"
       style="font-size:388.5px;font-family:'Arial Rounded MT Bold';letter-spacing:20px;fill:#3e8578"
       d="m 4050.4431,1297.1702 h -101.2983 q 0.1897,17.6418 7.0188,31.1103 7.0188,13.4685 18.4006,20.2976 11.5715,6.8291 25.4194,6.8291 9.2952,0 16.8831,-2.0866 7.7776,-2.2764 14.9861,-6.8291 7.2085,-4.7425 13.2788,-10.054 6.0703,-5.3115 15.7449,-14.417 3.9836,-3.4145 11.3818,-3.4145 7.9673,0 12.8994,4.363 4.9321,4.363 4.9321,12.3303 0,7.0188 -5.5012,16.5037 -5.5012,9.2951 -16.6933,18.0212 -11.0025,8.5364 -27.8855,14.2273 -16.6934,5.6909 -38.5086,5.6909 -49.8904,0 -77.5862,-28.4546 -27.6958,-28.4545 -27.6958,-77.2067 0,-22.9534 6.8291,-42.4922 6.8291,-19.7285 19.9183,-33.7661 13.0891,-14.0376 32.2485,-21.4358 19.1594,-7.5879 42.4922,-7.5879 30.3515,0 51.977,12.8994 21.8152,12.7097 32.628,33.0073 10.8127,20.2976 10.8127,41.354 0,19.5388 -11.1921,25.4194 -11.1922,5.691 -31.4898,5.691 z m -101.2983,-29.4031 h 93.9001 q -1.897,-26.5576 -14.417,-39.6467 -12.3303,-13.2788 -32.6279,-13.2788 -19.3491,0 -31.8691,13.4685 -12.3304,13.2788 -14.9861,39.457 z" />
    <path
       id="path83"
       style="font-size:388.5px;font-family:'Arial Rounded MT Bold';letter-spacing:20px;fill:#3e8578"
       d="m 4404.5818,1360.5291 q -18.78,14.6066 -36.4219,22.0048 -17.4521,7.2085 -39.2673,7.2085 -19.9182,0 -35.094,-7.7776 -14.9861,-7.9672 -23.1431,-21.4357 -8.157,-13.4686 -8.157,-29.2134 0,-21.2461 13.4685,-36.2322 13.4685,-14.9861 36.991,-20.1079 4.9321,-1.1382 24.471,-5.1218 19.5388,-3.9837 33.3867,-7.2085 14.0376,-3.4146 30.3515,-8.157 -0.9485,-20.4873 -8.3466,-29.9722 -7.2085,-9.6745 -30.1619,-9.6745 -19.7285,0 -29.7825,5.5012 -9.8642,5.5012 -17.0727,16.5036 -7.0188,11.0025 -10.054,14.6067 -2.8454,3.4146 -12.52,3.4146 -8.7261,0 -15.1758,-5.5012 -6.26,-5.691 -6.26,-14.417 0,-13.6582 9.6746,-26.5577 9.6745,-12.8994 30.1618,-21.246 20.4873,-8.3467 51.0286,-8.3467 34.1455,0 53.6843,8.157 19.5388,7.9672 27.5061,25.4194 8.157,17.4521 8.157,46.2861 0,18.211 -0.1897,30.9207 0,12.7097 -0.1897,28.2649 0,14.6067 4.7424,30.5412 4.9322,15.7449 4.9322,20.2976 0,7.9673 -7.5879,14.6067 -7.3982,6.4497 -16.8831,6.4497 -7.9673,0 -15.7449,-7.3982 -7.7775,-7.5879 -16.5036,-21.8151 z m -3.4146,-74.9305 q -11.3818,4.1734 -33.197,8.9158 -21.6255,4.5527 -29.9722,6.8291 -8.3466,2.0867 -15.9345,8.5364 -7.5879,6.26 -7.5879,17.6418 0,11.7613 8.9158,20.1079 8.9157,8.157 23.3327,8.157 15.3655,0 28.2649,-6.6394 13.0891,-6.8291 19.1594,-17.4521 7.0188,-11.7613 7.0188,-38.6983 z" />
    <path
       id="path85"
       style="font-size:388.5px;font-family:'Arial Rounded MT Bold';letter-spacing:20px;fill:#3e8578"
       d="m 4571.4075,1207.8228 v 6.26 q 13.6582,-18.0213 29.7824,-26.368 16.314,-8.5363 37.3704,-8.5363 20.4873,0 36.6116,8.9157 16.1242,8.9158 24.0915,25.2298 5.1219,9.4848 6.6394,20.4873 1.5176,11.0024 1.5176,28.0752 v 96.3662 q 0,15.5552 -7.2085,23.5224 -7.0188,7.9673 -18.4006,7.9673 -11.5716,0 -18.7801,-8.157 -7.2084,-8.1569 -7.2084,-23.3327 v -86.3123 q 0,-25.6091 -7.2085,-39.0776 -7.0188,-13.6582 -28.2649,-13.6582 -13.8479,0 -25.2298,8.3467 -11.3818,8.157 -16.6933,22.5739 -3.794,11.5716 -3.794,43.251 v 64.8765 q 0,15.7449 -7.3982,23.7121 -7.2085,7.7776 -18.78,7.7776 -11.1921,0 -18.4006,-8.157 -7.2085,-8.1569 -7.2085,-23.3327 v -149.6712 q 0,-14.7963 6.4497,-22.0048 6.4497,-7.3982 17.6418,-7.3982 6.8291,0 12.3303,3.2248 5.5013,3.2249 8.7261,9.6746 3.4146,6.4497 3.4146,15.7449 z" />
    <path
       id="path87"
       style="font-size:388.5px;font-family:'Arial Rounded MT Bold';letter-spacing:20px;fill:#3e8578"
       d="m 4909.7195,1360.5291 q -18.78,14.6066 -36.4219,22.0048 -17.4521,7.2085 -39.2673,7.2085 -19.9182,0 -35.094,-7.7776 -14.9861,-7.9672 -23.1431,-21.4357 -8.157,-13.4686 -8.157,-29.2134 0,-21.2461 13.4685,-36.2322 13.4685,-14.9861 36.991,-20.1079 4.9321,-1.1382 24.471,-5.1218 19.5388,-3.9837 33.3867,-7.2085 14.0376,-3.4146 30.3515,-8.157 -0.9485,-20.4873 -8.3466,-29.9722 -7.2085,-9.6745 -30.1619,-9.6745 -19.7285,0 -29.7825,5.5012 -9.8642,5.5012 -17.0727,16.5036 -7.0188,11.0025 -10.054,14.6067 -2.8455,3.4146 -12.52,3.4146 -8.7261,0 -15.1758,-5.5012 -6.26,-5.691 -6.26,-14.417 0,-13.6582 9.6746,-26.5577 9.6745,-12.8994 30.1618,-21.246 20.4873,-8.3467 51.0286,-8.3467 34.1455,0 53.6843,8.157 19.5388,7.9672 27.5061,25.4194 8.157,17.4521 8.157,46.2861 0,18.211 -0.1897,30.9207 0,12.7097 -0.1897,28.2649 0,14.6067 4.7424,30.5412 4.9322,15.7449 4.9322,20.2976 0,7.9673 -7.5879,14.6067 -7.3982,6.4497 -16.8831,6.4497 -7.9673,0 -15.7449,-7.3982 -7.7775,-7.5879 -16.5036,-21.8151 z m -3.4146,-74.9305 q -11.3818,4.1734 -33.197,8.9158 -21.6255,4.5527 -29.9722,6.8291 -8.3466,2.0867 -15.9345,8.5364 -7.5879,6.26 -7.5879,17.6418 0,11.7613 8.9158,20.1079 8.9157,8.157 23.3327,8.157 15.3655,0 28.2649,-6.6394 13.0891,-6.8291 19.1594,-17.4521 7.0188,-11.7613 7.0188,-38.6983 z" />
    <path
       id="path89"
       style="font-size:388.5px;font-family:'Arial Rounded MT Bold';letter-spacing:20px;fill:#3e8578"
       d="m 5029.5002,1358.2527 v -224.6016 q 0,-15.5552 6.8291,-23.5224 7.0188,-7.9673 18.7801,-7.9673 11.7612,0 18.9697,7.9673 7.2085,7.7776 7.2085,23.5224 v 224.6016 q 0,15.7449 -7.3982,23.7121 -7.2085,7.7776 -18.78,7.7776 -11.3819,0 -18.5904,-8.157 -7.0188,-8.1569 -7.0188,-23.3327 z" />
    <path
       id="path91"
       style="font-size:388.5px;font-family:'Arial Rounded MT Bold';letter-spacing:20px;fill:#3e8578"
       d="m 5202.7756,1396.1921 4.7425,-11.5715 -63.7383,-160.4839 q -5.8806,-13.8479 -5.8806,-20.1079 0,-6.6394 3.4145,-12.3303 3.4146,-5.6909 9.2952,-9.1055 6.0703,-3.4145 12.52,-3.4145 11.1921,0 16.8831,7.2085 5.6909,7.0188 10.0539,20.2976 l 43.8201,127.4765 41.5437,-118.5608 q 4.9321,-14.417 8.9158,-22.5739 3.9836,-8.157 8.3466,-11.0025 4.5528,-2.8454 12.7098,-2.8454 5.8806,0 11.1921,3.2248 5.5012,3.0352 8.3467,8.3467 3.0351,5.3115 3.0351,11.1921 -0.7588,3.6043 -2.466,10.2437 -1.7073,6.6394 -4.1734,13.4685 l -67.5322,176.7978 q -8.7261,23.3328 -17.0728,36.6116 -8.3466,13.2788 -22.1945,20.2976 -13.6582,7.2085 -36.991,7.2085 -22.7637,0 -34.1455,-4.9321 -11.3818,-4.9321 -11.3818,-18.0212 0,-8.9158 5.3115,-13.8479 5.5012,-4.7425 16.1242,-4.7425 4.1734,0 8.157,1.1382 4.9322,1.1382 8.5364,1.1382 8.9158,0 14.0376,-2.6558 5.1218,-2.6557 9.1055,-9.2951 4.1733,-6.4497 9.4848,-19.1595 z" />
    <path
       id="path93"
       style="font-size:388.5px;font-family:'Arial Rounded MT Bold';letter-spacing:20px;fill:#3e8578"
       d="m 5547.8218,1322.0205 q 0,21.4358 -10.4334,36.8013 -10.4333,15.1758 -30.9206,23.143 -20.2976,7.7776 -49.511,7.7776 -27.8855,0 -47.8037,-8.5363 -19.9182,-8.5364 -29.4031,-21.2461 -9.4849,-12.8995 -9.4849,-25.7989 0,-8.5363 6.0703,-14.6067 6.0704,-6.0703 15.3655,-6.0703 8.157,0 12.52,3.9837 4.3631,3.9836 8.3467,11.1921 7.9673,13.8479 18.9698,20.677 11.1921,6.8291 30.3515,6.8291 15.5552,0 25.4194,-6.8291 10.054,-7.0188 10.054,-15.9346 0,-13.6582 -10.4333,-19.9182 -10.2437,-6.26 -33.9559,-11.9509 -26.7473,-6.6394 -43.6303,-13.8479 -16.6934,-7.3982 -26.7473,-19.3491 -10.054,-11.9509 -10.054,-29.4031 0,-15.5552 9.2952,-29.4031 9.2951,-13.8479 27.3164,-22.0049 18.2109,-8.3466 43.82,-8.3466 20.108,0 36.0425,4.1733 16.1243,4.1733 26.7473,11.1921 10.8128,7.0188 16.314,15.5552 5.6909,8.5364 5.6909,16.6934 0,8.9158 -6.0703,14.6067 -5.8806,5.6909 -16.883,5.6909 -7.9673,0 -13.6583,-4.5527 -5.5012,-4.5528 -12.7097,-13.6582 -5.8806,-7.5879 -13.8479,-12.1407 -7.9673,-4.5527 -21.6255,-4.5527 -14.0376,0 -23.3327,6.0703 -9.2952,5.8806 -9.2952,14.7964 0,8.157 6.8291,13.4685 6.8291,5.1218 18.4007,8.5364 11.5715,3.4145 31.8691,8.3467 24.0915,5.8806 39.2673,14.0376 15.3655,8.1569 23.1431,19.3491 7.9673,11.0024 7.9673,25.2297 z" />
    <path
       id="path95"
       style="font-size:388.5px;font-family:'Arial Rounded MT Bold';letter-spacing:20px;fill:#3e8578"
       d="m 5664.0933,1208.5815 v 149.6712 q 0,15.5552 -7.3982,23.5224 -7.3982,7.9673 -18.7801,7.9673 -11.3818,0 -18.5903,-8.157 -7.0188,-8.1569 -7.0188,-23.3327 v -148.1536 q 0,-15.3655 7.0188,-23.143 7.2085,-7.7776 18.5903,-7.7776 11.3819,0 18.7801,7.7776 7.3982,7.7775 7.3982,21.6254 z m -25.6092,-53.4946 q -10.8127,0 -18.5903,-6.6394 -7.5879,-6.6394 -7.5879,-18.78 0,-11.0025 7.7776,-18.0213 7.9673,-7.2085 18.4006,-7.2085 10.054,0 17.8316,6.4498 7.7776,6.4497 7.7776,18.78 0,11.9509 -7.5879,18.78 -7.5879,6.6394 -18.0213,6.6394 z" />
    <path
       id="path97"
       style="font-size:388.5px;font-family:'Arial Rounded MT Bold';letter-spacing:20px;fill:#3e8578"
       d="m 5904.5215,1322.0205 q 0,21.4358 -10.4334,36.8013 -10.4333,15.1758 -30.9206,23.143 -20.2976,7.7776 -49.511,7.7776 -27.8855,0 -47.8037,-8.5363 -19.9182,-8.5364 -29.4031,-21.2461 -9.4849,-12.8995 -9.4849,-25.7989 0,-8.5363 6.0704,-14.6067 6.0703,-6.0703 15.3654,-6.0703 8.157,0 12.5201,3.9837 4.363,3.9836 8.3466,11.1921 7.9673,13.8479 18.9698,20.677 11.1921,6.8291 30.3515,6.8291 15.5552,0 25.4195,-6.8291 10.0539,-7.0188 10.0539,-15.9346 0,-13.6582 -10.4333,-19.9182 -10.2437,-6.26 -33.9558,-11.9509 -26.7474,-6.6394 -43.6304,-13.8479 -16.6934,-7.3982 -26.7473,-19.3491 -10.054,-11.9509 -10.054,-29.4031 0,-15.5552 9.2952,-29.4031 9.2951,-13.8479 27.3164,-22.0049 18.2109,-8.3466 43.8201,-8.3466 20.1079,0 36.0424,4.1733 16.1243,4.1733 26.7473,11.1921 10.8128,7.0188 16.314,15.5552 5.6909,8.5364 5.6909,16.6934 0,8.9158 -6.0703,14.6067 -5.8806,5.6909 -16.883,5.6909 -7.9673,0 -13.6582,-4.5527 -5.5013,-4.5528 -12.7098,-13.6582 -5.8806,-7.5879 -13.8479,-12.1407 -7.9672,-4.5527 -21.6254,-4.5527 -14.0376,0 -23.3328,6.0703 -9.2952,5.8806 -9.2952,14.7964 0,8.157 6.8291,13.4685 6.8291,5.1218 18.4007,8.5364 11.5715,3.4145 31.8691,8.3467 24.0916,5.8806 39.2673,14.0376 15.3655,8.1569 23.1431,19.3491 7.9673,11.0024 7.9673,25.2297 z" />
    <path
       id="path99"
       style="font-size:388.5px;font-family:'Arial Rounded MT Bold';letter-spacing:20px;fill:#3e8578"
       d="m 6088.6914,1183.7312 h 5.6909 v -31.1104 q 0,-12.52 0.5691,-19.5388 0.7588,-7.2085 3.794,-12.3303 3.0351,-5.3115 8.726,-8.5364 5.691,-3.4145 12.7098,-3.4145 9.8642,0 17.8315,7.3982 5.3115,4.9321 6.6394,12.1406 1.5176,7.0188 1.5176,20.1079 v 35.2837 h 18.9697 q 11.0024,0 16.6934,5.3115 5.8806,5.1219 5.8806,13.2788 0,10.4334 -8.3467,14.6067 -8.157,4.1734 -23.5225,4.1734 h -9.6745 v 95.228 q 0,12.1406 0.7588,18.78 0.9485,6.4497 4.5527,10.6231 3.7939,3.9836 12.1406,3.9836 4.5528,0 12.3303,-1.5176 7.7776,-1.7072 12.1407,-1.7072 6.26,0 11.1921,5.1218 5.1218,4.9321 5.1218,12.3303 0,12.52 -13.6582,19.1594 -13.6582,6.6394 -39.2673,6.6394 -24.2812,0 -36.8013,-8.157 -12.52,-8.1569 -16.5036,-22.5739 -3.794,-14.417 -3.794,-38.5086 v -99.4013 h -6.8291 q -11.1921,0 -17.0727,-5.3116 -5.8806,-5.3115 -5.8806,-13.4685 0,-8.1569 6.0703,-13.2788 6.26,-5.3115 18.0212,-5.3115 z" />
    <path
       id="path101"
       style="font-size:388.5px;font-family:'Arial Rounded MT Bold';letter-spacing:20px;fill:#3e8578"
       d="m 6437.0574,1284.4604 q 0,23.1431 -7.2085,42.6819 -7.2085,19.5389 -20.8667,33.5765 -13.6582,14.0375 -32.628,21.6254 -18.9697,7.3982 -42.6818,7.3982 -23.5225,0 -42.3025,-7.5879 -18.7801,-7.5878 -32.628,-21.6254 -13.6582,-14.2273 -20.8667,-33.3868 -7.0188,-19.3491 -7.0188,-42.6819 0,-23.5224 7.2085,-43.0612 7.2085,-19.5388 20.677,-33.3867 13.4685,-13.8479 32.628,-21.2461 19.1594,-7.5879 42.3025,-7.5879 23.5224,0 42.6818,7.5879 19.1595,7.5878 32.8177,21.6254 13.6582,14.0376 20.677,33.3868 7.2085,19.3491 7.2085,42.6818 z m -51.9771,0 q 0,-31.6794 -14.0376,-49.3212 -13.8479,-17.6419 -37.3703,-17.6419 -15.1758,0 -26.7474,7.9673 -11.5715,7.7776 -17.8315,23.1431 -6.26,15.3654 -6.26,35.8527 0,20.2977 6.0703,35.4734 6.26,15.1758 17.6419,23.3328 11.5715,7.9673 27.1267,7.9673 23.5224,0 37.3703,-17.6419 14.0376,-17.8315 14.0376,-49.1316 z" />
    <path
       id="path103"
       style="font-size:388.5px;font-family:'Arial Rounded MT Bold';letter-spacing:20px;fill:#3e8578"
       d="m 6691.5232,1284.4604 q 0,23.1431 -7.2085,42.6819 -7.2085,19.5389 -20.8667,33.5765 -13.6582,14.0375 -32.6279,21.6254 -18.9698,7.3982 -42.6819,7.3982 -23.5225,0 -42.3025,-7.5879 -18.78,-7.5878 -32.6279,-21.6254 -13.6582,-14.2273 -20.8667,-33.3868 -7.0188,-19.3491 -7.0188,-42.6819 0,-23.5224 7.2085,-43.0612 7.2085,-19.5388 20.677,-33.3867 13.4685,-13.8479 32.6279,-21.2461 19.1594,-7.5879 42.3025,-7.5879 23.5224,0 42.6819,7.5879 19.1594,7.5878 32.8176,21.6254 13.6582,14.0376 20.677,33.3868 7.2085,19.3491 7.2085,42.6818 z m -51.9771,0 q 0,-31.6794 -14.0376,-49.3212 -13.8479,-17.6419 -37.3703,-17.6419 -15.1758,0 -26.7473,7.9673 -11.5716,7.7776 -17.8316,23.1431 -6.26,15.3654 -6.26,35.8527 0,20.2977 6.0703,35.4734 6.26,15.1758 17.6419,23.3328 11.5715,7.9673 27.1267,7.9673 23.5224,0 37.3703,-17.6419 14.0376,-17.8315 14.0376,-49.1316 z" />
    <path
       id="path105"
       style="font-size:388.5px;font-family:'Arial Rounded MT Bold';letter-spacing:20px;fill:#3e8578"
       d="m 6752.1184,1358.2527 v -224.6016 q 0,-15.5552 6.8291,-23.5224 7.0188,-7.9673 18.78,-7.9673 11.7613,0 18.9698,7.9673 7.2085,7.7776 7.2085,23.5224 v 224.6016 q 0,15.7449 -7.3982,23.7121 -7.2085,7.7776 -18.7801,7.7776 -11.3818,0 -18.5903,-8.157 -7.0188,-8.1569 -7.0188,-23.3327 z" />
    <path
       id="path107"
       style="font-size:388.5px;font-family:'Arial Rounded MT Bold';letter-spacing:20px;fill:#3e8578"
       d="m 7006.5842,1366.0303 -45.717,-75.1201 -28.0752,26.5576 v 41.1643 q 0,14.9861 -7.9673,23.143 -7.7776,7.9673 -18.0212,7.9673 -11.951,0 -18.7801,-7.9673 -6.8291,-7.9672 -6.8291,-23.5224 v -220.8076 q 0,-17.2625 6.6394,-26.1783 6.6394,-9.1054 18.9698,-9.1054 11.9509,0 18.9697,8.157 7.0188,8.1569 7.0188,24.0915 v 125.5796 l 58.2371,-61.0825 q 10.8127,-11.3819 16.5036,-15.5552 5.6909,-4.1733 13.8479,-4.1733 9.6746,0 16.1243,6.26 6.4497,6.0703 6.4497,15.3655 0,11.3818 -21.0564,30.3515 l -27.5061,25.2298 53.1152,83.4668 q 5.8806,9.2951 8.3467,14.2272 2.6558,4.7425 2.6558,9.1055 0,12.3303 -6.8291,19.5388 -6.6394,7.0188 -17.6419,7.0188 -9.4848,0 -14.6067,-5.1218 -5.1218,-5.1218 -13.8479,-18.5903 z" />
    <path
       id="path109"
       style="font-size:388.5px;font-family:'Arial Rounded MT Bold';letter-spacing:20px;fill:#3e8578"
       d="m 7163.0713,1208.5815 v 149.6712 q 0,15.5552 -7.3982,23.5224 -7.3982,7.9673 -18.78,7.9673 -11.3819,0 -18.5904,-8.157 -7.0188,-8.1569 -7.0188,-23.3327 v -148.1536 q 0,-15.3655 7.0188,-23.143 7.2085,-7.7776 18.5904,-7.7776 11.3818,0 18.78,7.7776 7.3982,7.7775 7.3982,21.6254 z m -25.6091,-53.4946 q -10.8128,0 -18.5904,-6.6394 -7.5879,-6.6394 -7.5879,-18.78 0,-11.0025 7.7776,-18.0213 7.9673,-7.2085 18.4007,-7.2085 10.0539,0 17.8315,6.4498 7.7776,6.4497 7.7776,18.78 0,11.9509 -7.5879,18.78 -7.5879,6.6394 -18.0212,6.6394 z" />
    <path
       id="path111"
       style="font-size:388.5px;font-family:'Arial Rounded MT Bold';letter-spacing:20px;fill:#3e8578"
       d="m 7239.8857,1183.7312 h 5.691 v -31.1104 q 0,-12.52 0.5691,-19.5388 0.7587,-7.2085 3.7939,-12.3303 3.0352,-5.3115 8.7261,-8.5364 5.6909,-3.4145 12.7097,-3.4145 9.8642,0 17.8315,7.3982 5.3116,4.9321 6.6394,12.1406 1.5176,7.0188 1.5176,20.1079 v 35.2837 h 18.9697 q 11.0025,0 16.6934,5.3115 5.8806,5.1219 5.8806,13.2788 0,10.4334 -8.3467,14.6067 -8.1569,4.1734 -23.5224,4.1734 h -9.6746 v 95.228 q 0,12.1406 0.7588,18.78 0.9485,6.4497 4.5527,10.6231 3.794,3.9836 12.1407,3.9836 4.5527,0 12.3303,-1.5176 7.7776,-1.7072 12.1406,-1.7072 6.26,0 11.1921,5.1218 5.1219,4.9321 5.1219,12.3303 0,12.52 -13.6582,19.1594 -13.6582,6.6394 -39.2674,6.6394 -24.2812,0 -36.8012,-8.157 -12.5201,-8.1569 -16.5037,-22.5739 -3.7939,-14.417 -3.7939,-38.5086 v -99.4013 h -6.8291 q -11.1922,0 -17.0728,-5.3116 -5.8806,-5.3115 -5.8806,-13.4685 0,-8.1569 6.0703,-13.2788 6.26,-5.3115 18.0212,-5.3115 z" />
  </g>
</svg>
